<?xml version="1.0" encoding="UTF-8"?>
<svg id="Layer_1" data-name="Layer 1" xmlns="http://www.w3.org/2000/svg" viewBox="0 0 1030.2 662.57">
  <defs>
    <style>
      .cls-1 {
        fill: #187983;
      }

      .cls-1, .cls-2, .cls-3, .cls-4, .cls-5, .cls-6, .cls-7, .cls-8, .cls-9, .cls-10, .cls-11, .cls-12, .cls-13, .cls-14, .cls-15, .cls-16, .cls-17, .cls-18, .cls-19 {
        stroke-width: 0px;
      }

      .cls-2 {
        fill: #11898b;
      }

      .cls-3 {
        fill: #626364;
      }

      .cls-4 {
        fill: #0f8e8e;
      }

      .cls-5 {
        fill: #197a83;
      }

      .cls-6 {
        fill: #636465;
      }

      .cls-7 {
        fill: #174650;
      }

      .cls-8 {
        fill: #073b48;
      }

      .cls-9 {
        fill: #0b3d49;
      }

      .cls-10 {
        fill: #1a7981;
      }

      .cls-11 {
        fill: #0f8f8e;
      }

      .cls-12 {
        fill: #197982;
      }

      .cls-13 {
        fill: #177d85;
      }

      .cls-14 {
        fill: #158087;
      }

      .cls-15 {
        fill: #fdfdfd;
      }

      .cls-16 {
        fill: #118d8d;
      }

      .cls-17 {
        fill: #18434d;
      }

      .cls-18 {
        fill: #0a3d49;
      }

      .cls-19 {
        fill: #1b4751;
      }
    </style>
  </defs>
  <path class="cls-8" d="M54.46,409.91c22.42-2.18,45.44,1.47,67.62,6.41,2.53.56,5.05,1.14,7.57,1.73,33.72,7.92,67.39,17.01,102.26,12.65l4.38-.62-1.88,1.88-9.38,4.38-18.75,6.25-18.12,3.75c-13.59,2.81-27.94,3.02-41.78,4.46-7.82.82-15.64,1.7-23.45,2.65-7.69.94-16.04,1.22-23.54,3.16-6.44,1.66-12.9,3.62-19.35,5.35,26.54-7.08,54.45-7.66,81.73-9.6,13.93-.99,27.88-2.41,41.56-5.3,6.96-1.47,13.85-3.32,20.56-5.7,5.77-2.04,12.64-4.2,17.39-8.15.69-.58,3.48-3.57,4.23-2.73,1.07,1.19-4.43,6.78-5.32,7.76-4.62,5.11-9.97,9.52-15.57,13.52-27.06,19.33-59.25,29.12-88.95,43.41-5.66,2.72-11.25,5.61-16.68,8.77-5.39,3.13-10.4,7.32-15.83,10.22,2.03-1.23,4.17-2.31,6.25-3.45,14.12-7.7,27.98-15.28,42.95-21.38,15.86-6.47,32.03-12.19,47.6-19.37,13.16-6.07,25.84-13.26,37.2-22.3,4.08-3.24,7.32-7.03,10.99-10.7-.1,3.58-2.22,6.76-4.33,9.66-9.66,13.3-20.68,25.61-32.83,36.68-10.02,9.13-21.01,17.07-31.58,25.53l-6.88,5.62-8.12,6.88-5,5-5,4.38s-8.12,8.12-8.13,8.13c-1.58,1.6-3.19,3.25-4.31,5.21,1.42-.81,2.6-1.97,3.76-3.12,6.13-6.05,12.34-11.9,18.67-17.71,0,0,10.62-8.75,10.63-8.75,26.54-19.91,55.58-39.17,73.82-67.54l1.18-1.83,7.5-15h.62l-.62,9.38-2.5,11.88s-5.62,15-5.63,15c-9.22,19.37-20.26,37.41-32.5,55-12.33,17.72-23.18,36.28-31.67,56.15,13.16-30.79,35.8-55.78,53.76-83.69,12.27-19.07,24.48-41.11,23.6-64.49-.13-3.58,2.88.83,3.24,1.68,1.58,3.73,3.16,7.39,4.37,11.26,5.58,17.92,6.03,37.26,5.58,55.89-.46,19.1-2.76,38.16-6.88,56.82-1.65,7.49-3.82,14.81-6.36,22.05-2.63,7.58-5.57,15.05-8.69,22.44-4.86,11.52-10.15,22.92-17.02,33.37-7.98,12.14-18.36,24.45-32.44,29.14l-8.12.62-5.62-1.25-5.62-3.75s-4.84-6.05-5-6.25c-4.85-6.07-6.47-14.31-6.28-21.92.03-1.08-.07-15.25-.14-15.22-3.04,1.39-5.92,4.75-8.69,6.77-3.05,2.21-6.22,4.27-9.49,6.15-5.82,3.35-12.08,6.19-18.75,6.91s-13.84-.9-18.71-5.52c-3.86-3.66-5.98-8.86-6.84-14.11-.74-4.5-.62-9.08-.41-13.62.06-1.21,1.86-11.02,2.19-11.03-3.68.21-7.9,2.53-11.54,3.5-4.13,1.1-8.36,1.9-12.64,2.04-8.4.29-17.29-2.26-22.84-8.58-1.35-1.54-2.48-3.28-3.19-5.19-.94-2.56-1.11-5.34-1.05-8.06.14-6.94,1.69-13.83,4.43-20.19,1.44-3.33,3.21-6.53,5.28-9.51,1.71-2.47,4.88-4.93,5.71-7.82-4.57-.87-9.5.97-14.1,1.13-14.61.51-37.18-1.42-42.23-18.42-1.85-6.22.29-11.39,1.79-17.3,0,0,5-8.75,5-8.75l6.88-7.5s5.62-5,5.63-5c1.09-.66,2.17-1.3,3.18-2.06-6.93-2.19-14.05-3.82-20.77-6.57-11.09-4.55-23.13-14.33-22.42-27.58.31-5.75,4.17-9.91,7.65-14.19,3.26-4.02,7.18-7.49,11.61-10.18,10.2-6.18,23.49-8.44,35.17-9.58Z"/>
  <path class="cls-3" d="M19.41,31.76c44.66-.11,89.32-.23,133.98-.34,35.32-.09,73.35.12,105.13,18.03,9.18,5.17,17.61,11.75,24.48,19.77,16.08,18.75,22.8,44.42,21.35,69.08-1.87,31.62-16.85,62.26-40.67,83.14-24.3,21.31-56.25,31.6-88.04,34.26-8.4.7-16.83.89-25.25.62-2.86-.09-7.32.53-9.83-1.1-2.69-1.75-3.57-6.26-1.22-8.61,2.63-2.63,6.81-2.69,10.53-2.69,19.14,0,38.49-3.16,55.84-11.25,17.35-8.08,32.6-21.34,41.21-38.43,8.32-16.5,10.11-35.72,7.83-54.06-4.28-34.45-24.44-68.17-56.19-82.23-23.73-10.51-50.96-9.27-76.6-5.2-2.19.35-4.54.79-6.1,2.36-1.93,1.94-2.11,4.96-2.17,7.7-.18,8.64-.36,17.28-.54,25.92-18.5,9.14-35.36,21.6-49.53,36.59-.68-17.16-1.35-34.33-2.03-51.49-.35-8.9-1.08-18.71-7.39-24.99-6.87-6.83-17.7-6.97-27.39-7.22-3.01-.08-6.21-.28-8.66-2.03s-3.61-5.63-1.54-7.82c.94,0,1.88,0,2.81,0Z"/>
  <path class="cls-3" d="M531.29,217.07c19.88,0,40.83-1.12,59.94,5.38,14.07,4.79,24.66,16.33,28.3,30.73,3.2,12.66.24,25.86-5.74,37.22-3.11,5.92-7.05,11.4-11.52,16.37-.98,1.09-11.98,10.67-11.6,11.42l1.25,2.5c5.4,10.81,16.76,21.17,24.5,30.42,11.24,13.44,22.55,27.15,35.5,38.95,0,0,8.75,5.62,8.75,5.63,6.38,2.45,11.96,3.58,18.79,4.49,1.12.15,2.31.33,3.18,1.07,3.84,3.29-3.87,3.73-5.61,3.78-10.19.32-20.4.09-30.57-.69-13.49-1.03-24.14-10.78-32.57-20.53-14.51-16.79-26.74-34.99-40.23-52.46-7.27-9.41-29.44-5.88-40.48-6.29v30.63s.62,24.83.62,25c.36,14.53,10.68,19.03,23.66,20.37-.09,1.14-.39,2.46-.63,3.67-1.19,5.71-64.27-1.65-64.27-.29v-3.12l4.38-1.25,6.88-1.88,2.5-2.5,1.88-7.5,1.25-13.75.62-18.75s0-102.5,0-102.5c-.26-7.73.99-17.58-2.16-24.77-3.12-7.13-11.23-6.85-17.84-7.73l-1.88-1.25s0-1.88,0-1.88c12.42-.18,24.89-.75,37.31-.54,1.94.03,3.88.04,5.82.04Z"/>
  <path class="cls-11" d="M267.55,408.95l-5.01,3-8.13,3.13-11.87,2.5-11.88,1.25h-26.87l-24.38-1.88-26.87-3.75s-14.99-3.12-15-3.12l-10.32-3.1-2.18-.65s-3.51-1.76-3.74-1.87c-.57-.29-.99-4.31-1.12-5.01-.61-3.2-.61-6.49-.76-9.74-.45-9.53-.79-19.06-1.02-28.59-.72-29.1-.24-58.2-.24-87.29,0,.21,22.74,5.14,24.7,5.74,12.95,3.91,25.02,9.67,37.18,15.51l13.75,8.75c2.86,2.14,5.71,4.31,8.53,6.52.01,0,.01.01.02.01,3.95,3.09,7.83,6.26,11.57,9.6.07.05.13.11.2.18,2.23,1.99,4.39,4.06,6.52,6.15l5.79,5.79,1.74,1.75,3.22,3.93,2.41,2.94,3.41,4.26h.01s.82,1.04.82,1.04l2.04,2.82,6.84,10.01,5.63,9.37c2.1,3.51,4.07,7.1,5.92,10.77.61,1.21,1.21,2.43,1.79,3.66,1.74,3.69,3.36,7.43,4.88,11.22.38.97.76,1.94,1.13,2.92l2.48,7.05c.47,1.94-.02,3.64-1.19,5.13Z"/>
  <path class="cls-6" d="M111.91,123.82h1.25v135.62c0,12.4-.96,152.46,3.29,152.79-19.57-1.5-39.3-4.77-58.92-5.29l2.5-11.88,1.25-12.5,1.25-29.38.62-72.5v-109.38l5.62-8.75s5.62-7.5,5.63-7.5c10.26-12.54,22.92-23.96,37.5-31.25Z"/>
  <path class="cls-3" d="M742.55,418.64c21.33-.83,42.7-.77,64.02.18.21,2.04-1.95,3.56-3.97,3.93s-4.17.11-6.06.91c-4.96,2.11-4.48,9.21-3.14,14.43,11.14,43.38,23.42,86.47,36.82,129.21,15.31-39.11,30.61-78.22,45.92-117.32,2.84-7.25,5.67-14.52,9.11-21.51s7.16-14.07,11.22-3.22c8.76,23.44,17.3,46.95,25.91,70.45,4.54,12.38,9.07,24.75,13.61,37.13,2.2,6,4.4,12,6.6,18,1.81,4.94,6.6,12.8,6.6,18,14.54-43.08,28.01-86.53,40.4-130.28,1.42-5.01,2.49-12.66-3.82-14.85-1.95-.68-4.09-.51-6.1-1.02s-4.04-2.11-3.86-4.17c5.31-.15,54.11,1.21,54.39.07-1.11,3.98-6.4,4.41-10.31,5.74-8.7,2.95-12.69,12.76-15.62,21.47-15.01,44.55-30.03,89.09-45.04,133.64-3.06,9.09-6.15,18.23-10.85,26.59-.79,1.41-1.78,2.91-3.34,3.34-3.02.82-5.26-2.74-6.37-5.67-17.71-46.98-35.41-93.97-53.12-140.95-18.33,46.65-36.66,93.3-54.99,139.96-.6,1.54-1.26,3.15-2.54,4.2-2.44,2-6.31,1.1-8.57-1.1-3.82-3.73-4.93-10.37-6.44-15.27-2.12-6.87-4.23-13.73-6.35-20.6-4.35-14.11-8.7-28.23-13.05-42.34-8.59-27.85-17.17-55.69-25.76-83.54-2.58-8.38-6.39-17.99-14.85-20.28-4.7-1.27-11.04-.58-13.05-5.01.87-.04,1.73-.07,2.6-.1Z"/>
  <path class="cls-11" d="M221.91,162.58l-1.57-.63-.69-.28h-.02s-.84-.34-.84-.34l-8.25-6.08-.2-.15-1.95-1.43-1.48-1.09-8.12-6.25-8.75-6.25-6.88-5-8.75-6.25-3.75-2.5c-3.04,0-6.25.3-9.27.07-5.38-.41-10.75-4.4-15.35-6.88-5.34-2.87-10.33-4.3-16.37-4.14-6.11.17-12,2.15-17.76,4.07l-10,5c-11.77,8.41-22.99,17.72-31.98,29.19-5.54,7.07-9.92,14.85-14.27,22.69l-5,10-3.75,9.37c-.53,1.33-.71,2.95-1.03,4.34-.53,2.28-1.25,4.52-1.72,6.83-1.58,7.87-1.32,16.02.92,23.75.37,1.27.82,2.52,1.34,3.75.92,2.25,2.08,4.42,3.39,6.49.1.18.21.36.33.54.08.12.16.25.25.37.99,1.54,2.06,3.07,3.25,4.48.52.61,1.14,1.14,1.75,1.68.57.5,1.14,1.02,1.62,1.62.07.09.14.18.21.27.51.71.79,1.55.94,2.44.33,1.98,0,4.25,0,6.09v50.48c.01,10.1.03,20.22,0,30.32-.02,6.52-.03,13.04-.2,19.56l-.09,2.79-.29,8.19c-.14.47-.33.82-.58,1.01h-1.35l-3.03-2.57-4.7-3.98c-6.13-5.26-11.53-10.96-16.63-17.2-1.31-1.6-2.56-3.23-3.76-4.89-4.31-5.92-8-12.25-11.22-18.86-.08-.16-.15-.32-.23-.48-.07-.14-.14-.29-.21-.43-.83-1.74-1.58-3.5-2.29-5.28l-.07-.17c-.48-1.2-.95-2.41-1.4-3.63l-.02-.06c-.14-.36-.27-.72-.41-1.09-.13-.35-.26-.71-.39-1.06-.19-.52-.38-1.04-.57-1.56l-.68-1.86s-.01-.06-.02-.09c-.01-.06-.02-.11-.03-.16-.01-.08-.03-.15-.05-.23,0-.05-.01-.09-.03-.14-.56-2.55-2.67-12.22-2.96-13.6,0-.06-.03-.11-.04-.16-.01-.02-.02-.08-.04-.18-.23-1.08-.44-2.16-.63-3.26-1.49-8.5-1.78-17.46-1.26-25.99.6-10.02,1.82-20.85,4.43-30.57l4.38-16.25,3.12-9.37,6.25-15s7.05-14.1,7.48-14.96c11.07-22.14,28.28-43.7,46.9-60.04l5-4.38,10.62-8.12c7.94-4.85,15.78-9.83,24.69-12.72,3.35-1.09,6.82-1.87,10.32-2.2,2.54-.24,5.09-.25,7.63.03,2,.22,3.97.62,5.94,1.03,2.08.44,4.18.89,6.15,1.71,1.85.76,3.56,1.84,5.22,2.98,2.95,2.03,5.6,4.26,8.07,6.64,4.43,4.28,8.25,9.06,12.05,14.08l1.18,1.57c1.87,2.49,4.63,4.63,6.84,6.84.5.5,1,.98,1.51,1.47h.01c3.44,3.29,7.13,6.34,10.7,9.5.26.22.51.44.76.67l.02.02c.68.61,1.36,1.23,2.03,1.85.63.58,1.25,1.17,1.88,1.75,3.3,3.04,6.62,6.06,9.87,9.15.63.59,1.26,1.19,1.88,1.8h.01c.44.43.88.86,1.31,1.28l1.31,1.3,2.14,1.75,4.73,3.87.89,1.12h.01s1.1,1.38,1.1,1.38l.5.63Z"/>
  <path class="cls-3" d="M686.23,217.62c20.27-1.18,40.59-1.29,60.87-.33-.74,3.95-6.19,4.19-9.83,5.9-6.6,3.11-7.53,11.95-7.53,19.25,0,20.61,0,41.23-.01,61.84,23.07-23.44,46.14-46.88,69.21-70.32,2.64-2.69,5.5-6.42,3.92-9.84-1.2-2.58-4.76-4.59-3.72-7.24,16.67-.74,33.37-.65,50.03.26-3.22,5.03-9.88,6.17-15.5,8.17-10.79,3.83-19.35,12.03-27.56,20.01-18.44,17.92-36.89,35.84-55.33,53.76,14.02,15.61,29.04,30.29,44.04,44.95,12.52,12.24,24.25,25.37,37.9,36.4,6.86,5.54,14.2,10.56,22.18,14.37,5.25,2.51,18.83,4.02,21.8,8.67-.44.57-1,.79-1.71.99-7.59,2.14-17.44.56-25.25.48-7.27-.07-14.69-.23-21.56-2.64-8.21-2.89-14.96-8.77-21.38-14.65-27.25-24.98-52.25-52.3-77.21-79.57-.19,25.18.16,50.36,1.05,75.52.14,4.02.42,8.39,3.06,11.43,4.57,5.29,13.17,3.65,19.53,6.55-2.79,2.9-7.3,3.03-11.32,2.98-10.95-.15-21.89-.29-32.84-.44-5.03-.07-11.56.97-16.43-.22-2.05-.5-3.77.81-3.7-1.92.04-1.78,2.83-3.28,4.28-3.56,2.68-.53,5.67-.05,7.97-1.54,2.64-1.71,3.23-5.27,3.52-8.41,1.8-19.54,1.77-39.2,1.74-58.82-.05-29.71-.1-59.42-.14-89.13-.01-6.63-.91-14.71-6.98-17.39-4.76-2.1-12.09-.6-13.88-5.49.27-.02.54-.03.81-.05Z"/>
  <path class="cls-3" d="M273.82,418.52c19.29-1.42,38.69-1.43,57.98-.03,1.82.13,4.13.71,4.35,2.52-4.31,2.24-9.06,3.62-13.89,4.05,2.77,14.29,8.16,27.91,13.51,41.45,13.87,35.05,27.74,70.09,41.61,105.14,19.88-44.84,38.07-90.43,54.53-136.63,1.17-3.28,2.17-7.37-.24-9.87-3.61-3.74-12.3-1.09-13.41-6.16,18.38-2.18,37-2.29,55.4-.32-.88,3.3-5.23,3.76-8.54,4.6-9.98,2.52-15.29,13.12-19.34,22.58-21.9,51.2-43.8,102.39-65.71,153.59-1.22,2.86-2.56,5.87-5.1,7.68-6,4.28-9.06-1.95-10.97-6.54-2.87-6.9-5.74-13.79-8.61-20.69-5.74-13.79-11.47-27.58-17.21-41.37-11.47-27.58-22.95-55.16-34.42-82.75l-4.13-9.93c-3.89-9.34-9.17-19.9-19.07-22-4.65-.98-10.74-.51-12.73-4.83,1.99-.18,3.99-.34,5.99-.49Z"/>
  <path class="cls-3" d="M372.14,212.58c.14-.05.29-.08.44-.11,2.69-.46,4.55,2.53,5.6,5.05,20.11,48.12,40.03,96.96,59.38,145.63,3.6,9.04,7.28,18.26,13.51,25.74,2.89,3.46,6.7,6.76,10.84,8.97,1.88,1,18.09,3.36,13.27,6.65-.87.6-1.99.67-3.05.71-1.96.07-3.93.09-5.89.09-12.66.02-25.35-.31-37.99-1.12-2.34-.15-10.62.1-5.42-4.34.72-.61,1.63-1.01,2.18-1.77,1.64-2.28-4.4-12.97-5.4-15.54-2.37-6.12-4.75-12.24-7.12-18.36-4.86-12.51-9.71-25.03-14.57-37.54-4.86-12.51-9.71-25.03-14.57-37.54l-7.12-18.36c-1.19-3.06-2.37-6.12-3.56-9.18-.62-1.6-4.1-7.69-3.56-9.18-15.81,43.6-31.63,87.21-47.44,130.81-1.15,3.16-2.31,6.45-1.98,9.79s2.63,6.75,5.97,7.18c1.71.22,3.51-.34,5.16.16s2.73,3.05,1.22,3.88c-.44.24-.98.25-1.48.25-10.47,0-20.95,0-31.42.01-5.39,0-10.77,0-16.16,0-1.11,0-6.46.73-7.14-.05-1.13-1.29-.31-3.3,1.2-4.02,1.59-.76,3.45-.46,5.21-.43,6.42.09,12.39-3.78,16.41-8.79,4.02-5.02,6.41-11.1,8.75-17.09,20.43-52.37,40.86-104.74,61.29-157.11.7-1.8,1.68-3.84,3.46-4.41Z"/>
  <path class="cls-3" d="M706.16,416.87c2.23.63,3.58,1.96,3.25,4.46,0,0-3.12,24.37-3.12,24.37l-1.25,3.12h-3.12l-1.88-10-1.88-3.75-4.38-2.5-8.12-1.88-6.88-.62-17.5-.62h-16.25l-1.25.62s0,70.62,0,70.62c14.06,0,28.27.6,42.29-.32,6.86-.45,12.34-2.57,18.34-5.62,1.16,2.84.18,7.11,0,10.31-.32,5.39-.65,10.8-1.47,16.14-.51,3.32-3.97,14.89-5.25,5.34-.33-2.42-.67-4.89-1.76-7.08-4.49-8.93-19.77-6.9-27.94-6.9-1.75,0-24.2-.11-24.2,0l-.62,22.5v18.75s.58,23.9.62,25.54c.25,10.44,8.3,14.65,17.66,15.63,8.3.87,20.57,1.8,28.6.08,5.66-1.21,11.86-2.83,15.99-7.17,3.17-3.34,2.76-13.18,7.27-14.96s2.28,7.19,2.05,9.88c-.47,5.67-1.43,11.31-2.87,16.81-.63,2.42-1.54,5.06-3.73,6.27-1.4.78-3.08.81-4.69.82-27.18.22-54.7-2.12-81.82-.61-3.83.19-20.75,3.05-20.31-3.56,3.55-1.03,7.1-2.06,10.65-3.09.73-.21,1.5-.44,2.03-.99.51-.53.72-1.27.9-1.98,3.62-13.93,3.41-28.39,3.89-42.68v-93.05c0-8.56,1.99-29.82-5.37-35.31-3.02-2.26-6.68-2.04-10.22-2.52-1.1-.15-4.3.08-5.08-.84-4.29-5.19,7.96-3.83,10.07-3.87,16.95-.36,33.91-.29,50.87-.18,8.68.05,17.35.12,26.03.15,3.68.01,14.84-2.9,20.45-1.32Z"/>
  <path class="cls-12" d="M267.55,408.95l-5.01,3-8.13,3.13-11.87,2.5-11.88,1.25h-26.87l-24.38-1.88-26.87-3.75s-14.99-3.12-15-3.12c-3.48-.72-6.97-1.77-10.32-3.1-1.84-.72-3.63-1.54-5.36-2.43,2.27-1.02,4.89-.25,7.27.46,6.17,1.83,12.48,3.16,18.85,3.99.5.06,1.06.11,1.47-.18.41-.29.46-1.06-.02-1.22,1.77.58.64-.97.2-1.57-.52-.71-.98-1.47-1.47-2.2l-1.25-1.25-2.5-.63c1.78-5.33,4.95-9.68,10.53-11.5,2.2-.72,4.52-.99,6.8-1.38.49-.08,1-.18,1.39-.49.39-.32.58-.81.83-1.25,1.68-2.9,5.76-3.51,8.46-5.12,2.13-1.27,4.02-2.9,6.14-4.2.99-.61,2.49-.95,3.35-1.67.91-.76.94-2.39,2.54-1.86,1.01-2.62,2.95-3.7,5.03-5.46,2.23-1.89,3.91-4.31,5.96-6.39,2.23-2.25,4.92-3.65,7.92-4.6.11-.03.21-.06.3-.13.44-.38-.19-1.33.32-1.61.11-.06.25-.06.37-.07,1.54-.04,2.6-1,3.42-2.2,1.09-1.6,3.66-1.64,5.39-2.06v-1.26h1.88c-.01-.81-.01-1.61-.02-2.42,0-.22,0-.45.09-.65.38-.88,2.22-.84,2.99-1.13,1.31-.5,2.42-1.51,2.98-2.8.06-.16.13-.33.27-.42.14-.1.33-.11.5-.1.43,0,.85,0,1.28,0-.94,0-.12-5.23.03-5.67-.83.1-1.36-.89-1.48-1.72-.13-.83-.18-1.82-.89-2.27-.2-.13-.43-.2-.62-.33-1.01-.69-.81-2.65-1.28-3.7-.63-1.42-1.51-2.73-2.6-3.85-.68-.71-1.52-1.54-1.31-2.51-.77-.08-1.74-.35-1.84-1.13-.02-.16,0-.33-.05-.48-.09-.25-.35-.38-.58-.5-2.67-1.33-4.85-3.43-6.99-5.5-.65-.63-1.36-1.46-1.11-2.33-.83-.42-1.66-.83-2.5-1.25v-1.25c-.62-.21-1.25-.42-1.87-.63,0-.19-.01-.39-.01-.58.81.16,1.57.46,2.29.86.01,0,.01.01.02.01,1.2.65,2.29,1.55,3.33,2.43,2.79,2.34,5.52,4.74,8.24,7.17.07.05.13.11.2.18,1.14,1.01,2.29,2.03,3.43,3.06l8.88,8.88,1.74,1.75,3.22,3.93,2.41,2.94,3.41,4.26h.01s.82,1.04.82,1.04l2.04,2.82,6.84,10.01,5.63,9.37,5.92,10.77.95,1.73.84,1.93,4.88,11.22.53,1.23.6,1.69,2.48,7.05c.47,1.94-.02,3.64-1.19,5.13Z"/>
  <path class="cls-15" d="M540.04,226.32h21.25l10,2.5,9.38,5,5,4.38,5.62,8.12,3.12,7.5,2.5,10,.62,5v11.25l-1.88,10.62-2.5,7.5-4.38,8.12-5,5-8.75,4.38-2.5.62h-21.88l-13.12-1.88-3.75-1.88-.62-.62-.62-11.88v-70l1.25-2.5,6.25-1.25Z"/>
  <path class="cls-3" d="M494.41,418.34c17.91-.07,35.82-.13,53.73-.2,1.16,0,2.39,0,3.4.59s1.66,1.95,1.07,2.95c-5.84,1.06-12.52,2.74-15.08,8.1-1.15,2.42-1.22,5.19-1.27,7.86-.8,43.89-1.33,87.79-.42,131.68.13,6.25.29,12.51,1.02,18.72.27,2.33.64,4.71,1.76,6.76,1.79,3.28,5.3,5.33,8.93,6.22,3.63.88,7.42.74,11.15.6.71,1.22.73,2.81.07,4.06-.24.47-6.4,0-7.18,0-2.49,0-4.98,0-7.47,0-4.98,0-9.97,0-14.95.01-9.97,0-19.93.02-29.9.02-1.09,0-3.58.49-4.51-.11-.85-.54-.77-2.32-.92-3.21,5.64-.86,12.13-2.31,14.62-7.44.96-1.98,1.15-4.24,1.31-6.43,3.61-49.22,2.35-98.64,1.08-147.98-.08-3.32-.18-6.7-1.29-9.83s-3.41-6.02-6.6-6.96c-2.02-.6-4.22-.37-6.25-.93s-4.03-2.45-3.52-4.5c.41,0,.81,0,1.22,0Z"/>
  <path class="cls-1" d="M58.16,251.95v87.2c-.02,6.52-.03,13.04-.2,19.56l-.09,2.79-.29,8.19c-.14.47-.33.82-.58,1.01h-1.35l-3.03-2.57-4.7-3.98c-6.13-5.26-11.53-10.96-16.63-17.2l-3.76-4.89c-4.31-5.92-8-12.25-11.22-18.86h-.02l-.21-.48c-.07-.14-.14-.29-.21-.43-.83-1.74-1.58-3.5-2.29-5.28l-.07-.17-.35-.79-1.05-2.84-.02-.06-.41-1.12-.39-1.05-.57-1.54-.68-1.86s-.01-.06-.02-.09c-.01-.06-.02-.11-.03-.16-.01-.08-.03-.15-.05-.23,0-.05-.01-.09-.03-.14-1.35-6.88-2.29-11-2.96-13.6,0-.06-.03-.11-.04-.16-.01-.02-.02-.08-.04-.18-.11-.42-.36-1.53-.58-2.94-.02-.1-.03-.21-.05-.32-.4-2.72-.75-6.98.05-7.18.6-.16,1.66,2.05,1.87,2.5,1.8,3.75.74,5.99,2.5,7.5,1.01.85,2.55,1.14,3.13.62.62-.56-.21-1.8.62-3.12.45-.72.79-.52,1.25-1.25.71-1.13.07-1.89.63-3.13.19-.43.75-.91,1.87-1.87,1.48-1.27,2.24-1.91,3.13-1.88.56.02,1.01.25,1.25,0,.29-.32-.21-.88,0-1.25.43-.76,3.08.87,5.62,0,1.42-.48,2.67-1.7,2.5-2.5-.13-.66-1.17-.71-1.25-1.25-.07-.46.56-1.22,3.75-2.5.48.15,1.03.26,1.25,0,.28-.33-.23-.98,0-1.25.37-.43,1.78.94,3.13.63.46-.11.85-.4,2.5-3.13,1.64-2.72,1.68-3.15,2.5-3.75.93-.69,1.31-.43,3.12-1.25.17-.08,1.86-.85,3.13-1.87,3.08-2.51,3.64-6.55,3.75-7.5.26-2.41-.27-4.35-.63-5.63-.73-2.64-1.36-2.46-1.87-5-.28-1.36-.38-2.78-1.25-3.12-.48-.19-.74.13-1.25,0-.86-.22-1.33-1.39-1.88-3.75-.61-2.66-1.24-5.39-.62-5.63.2-.08.59.1,1.38,1.17.14.2.31.44.49.71l2.9,5.78.23.47.35.44,4.02,5.18.98.98,1.62,1.62.53.53.62,1.87Z"/>
  <path class="cls-11" d="M152.54,53.82h10l6.88.62v8.12l-1.25,11.25-1.88,7.5-3.12,8.12-2.5,5,3.12-3.12,3.75-6.25,2.5-6.88,2.5-11.88,1.25-10.62h4.38l13.75,3.75,3.75,1.25-.62,3.12-6.25,10-7.5,8.75-6.88,6.88-6.88,4.38-2.5,1.25-6.25.62.62-5.62v-5.62l-2.5-11.25-7.5-15.62-1.25-3.12,4.38-.62Z"/>
  <path class="cls-18" d="M267.55,408.95l-5.01,3-8.13,3.13-11.87,2.5-11.88,1.25h-18.75l-2.5-1.25,11.88-2.5,4.37-1.88,4.38-3.75,1.87-3.12,1.25-3.13,4.38-3.12,4.37-1.88,5-3.12,3.75-.63v-1.25l3.13-.62,1.87-2.5v-7.5h-1.25l-1.25-5.63-3.75-8.12-5.62-10.63-5-7.5-2.5-4.37v-1.25h-1.25l-6.88-8.75v-1.25l3.22,2.68,2.41,2.94,3.41,4.26-.29-.51,1.12,1.55,2.04,2.82,6.84,10.01,5.63,9.37,5.92,10.77.95,1.73.84,1.93,4.88,11.22.53,1.23.6,1.69,2.48,7.05c.47,1.94-.02,3.64-1.19,5.13Z"/>
  <path class="cls-9" d="M58.16,308.83v30.32c-.02,6.52-.03,13.04-.2,19.56l-.09,2.79-.29,8.19c-.14.47-.33.82-.58,1.01h-1.35l-3.03-2.57-4.7-3.98c-6.13-5.26-11.53-10.96-16.63-17.2l-3.76-4.89c-4.31-5.92-8-12.25-11.22-18.86h-.02l-.21-.48c-.07-.14-.14-.29-.21-.43-.83-1.74-1.58-3.5-2.29-5.28l-.07-.17-.35-.79-1.05-2.84-.02-.06c-.14-.36-.27-.72-.41-1.09-.13-.35-.26-.71-.39-1.06v-.92h1.25l6.25,14.37,3.75,6.25,3.12,3.75,1.88,3.13,3.12,3.75.63-1.25h1.87l-.62-1.88,2.5-3.12,5-4.38h6.25v1.25l5-.62,1.25-4.38,1.25-3.75,1.87-9.37,1.25-12.5h.63l.62,7.5Z"/>
  <path class="cls-11" d="M143.22.26c2.33-.64,4.93-.11,7.57,1.68,2.6,1.76,4.5,4.36,6.16,7.02,1.7,2.73,3.21,5.58,4.5,8.52.78,1.78,4.9,8.18,2.14,9.49-.59.28-1.28.28-1.94.26-1.87-.04-25.89.42-26-.28-1.21-7.88-2.21-15.24,2.29-22.38,1.45-2.3,3.25-3.74,5.27-4.3Z"/>
  <path class="cls-11" d="M138.79,54.45h5.62l5,10,4.38,11.25,1.88,8.75v6.25l-1.25,2.5-4.38-8.75-4.38-5-6.25-5-8.12-5.62-11.88-7.5-1.25-3.12,7.5-1.88,13.12-1.88Z"/>
  <path class="cls-5" d="M158.79,101.95l2.5.62,3.12,2.5,6.25,8.12,3.75,5,8.12,8.12,6.88,5.62,4.38,4.38,6.25,5,12.5,12.5,6.88,5.62,2.5,3.12-3.12-1.25-11.88-8.75-8.12-6.25-8.75-6.25-6.88-5-8.75-6.25-3.75-2.5-5-.62,1.25-2.5,3.12-.62,6.88,3.75v-2.5l-2.5-1.25v-1.25h-1.25l-4.38-5.62-5-6.88-.62-1.88h-1.25l-1.88-3.12v-1.25l-1.25-.62Z"/>
  <path class="cls-4" d="M195.06,13.92c2.3-.5,4.77-.24,6.64,1.14,2.16,1.59,3.13,4.29,3.96,6.83,1.62,4.95.88,6.98-4.17,6.68-5-.3-10.02-.28-14.99-.86-2.29-.27-4.9.2-4.58-2.32.26-2.01,2.8-4.2,4.14-5.53,2.12-2.1,4.36-4.18,7.1-5.34.61-.25,1.24-.46,1.89-.6Z"/>
  <path class="cls-16" d="M101.95,20.93c1.36-.22,2.81-.14,4.18.08,4.63.74,8.07,2.99,11.97,5.34-.64,2.62-6.77,1.44-8.82,1.5-3.07.1-6.11.76-9.19.55-4.89-.33-5.27-3.39-1.07-6.33.88-.61,1.88-.97,2.93-1.14Z"/>
  <path class="cls-19" d="M171.29,125.7l5.62,1.88,6.25,5,10,7.5,3.75,2.5,4.38,1.88,5.62,5,3.12,1.88,7.5,6.88,4.38,3.75h-1.88l-10.62-7.5-10.62-8.12-8.75-6.25-6.88-5-8.75-6.25-3.12-3.12Z"/>
  <polygon class="cls-7" points="239.41 348.83 237.54 348.2 236.29 345.08 235.04 345.08 228.16 336.33 228.16 335.08 231.38 337.76 233.79 340.7 237.2 344.96 237.21 344.97 239.41 348.83"/>
  <path class="cls-17" d="M17.54,321.95v1.25h-1.25l-.21-.48-2.5-5.71-.07-.17-.35-.79-1.05-2.84-.02-.06c-.14-.36-.27-.72-.41-1.09v-.03l-.39-1.95h1.25l5,11.87Z"/>
  <path class="cls-10" d="M150.04,83.2l3.12,3.12,1.88.62v6.25l-1.88-2.5-3.12-6.25v-1.25Z"/>
  <path class="cls-2" d="M198.16,140.07l4.38,3.75,5.62,5.62h-1.88l-5.62-5-2.5-3.12v-1.25Z"/>
  <path class="cls-13" d="M161.91,86.32h1.88l-.62,3.12-1.88,1.88h-1.25l.62-3.12,1.25-1.88Z"/>
  <path class="cls-14" d="M119.41,59.45l1.88.62,2.5,2.5,3.75,2.5-1.25.62-6.88-4.38v-1.88Z"/>
</svg>